<?xml version="1.0" standalone="no"?><!DOCTYPE svg PUBLIC "-//W3C//DTD SVG 1.1//EN" "http://www.w3.org/Graphics/SVG/1.1/DTD/svg11.dtd"><svg t="1632924086129" class="icon" viewBox="0 0 1024 1024" version="1.1" xmlns="http://www.w3.org/2000/svg" p-id="884" xmlns:xlink="http://www.w3.org/1999/xlink" width="200" height="200"><defs><style type="text/css"></style></defs><path d="M650.8 938.66c26.68-6.65 64.75-19.19 105.56-44.08 0 0 68.06-43.38 112.68-105.62 68.54-95.59 99.2-310.23-82.97-508.63-5.41-5.41-14.43-1.8-14.43 5.41 0 45.09 18.04 110.02-55.91 138.88 0 0 10.82-303.02-317.44-349.91-7.21-1.8-12.63 5.41-10.82 12.63 12.63 43.29 36.07 176.76-81.16 259.73-7.21 5.41-12.63 9.02-19.84 14.43-34.27-43.29-84.77-59.52-106.42-63.13-3.61-1.8-7.21 3.61-5.41 7.21 32.47 90.18-30.66 189.38-30.66 189.38h1.8c-41.48 61.32-57.72 133.47-28.86 236.28 0 0 57.72 171.35 274.16 212.83 50.64 5.52 109.08 8.03 173.61 3.88 30.52-1.96 59.28-5.22 86.11-9.29z" fill="#F55965" p-id="885"></path><path d="M375.27 943.72c-14.8-3.69-35.91-10.64-58.55-24.45 0 0-37.75-24.06-62.5-58.58-38.02-53.02-55.02-172.07 46.02-282.11 3-3 8-1 8 3 0 25.01-10 61.02 31.01 77.03 0 0-6-168.07 176.07-194.08 4-1 7 3 6 7-7 24.01-20.01 98.04 45.02 144.06 4 3 7 5 11 8 19.01-24.01 47.02-33.01 59.02-35.01 2-1 4 2 3 4-18.01 50.02 17.01 105.04 17.01 105.04h-1c23.01 34.01 32.01 74.03 16.01 131.05 0 0-32.01 95.04-152.06 118.05-28.09 3.06-60.5 4.45-96.29 2.15a556.79 556.79 0 0 1-47.76-5.15z" fill="#FFFFFF" p-id="886"></path></svg>